<svg width="99" height="30" viewBox="0 0 99 30" fill="none" xmlns="http://www.w3.org/2000/svg">
<g clip-path="url(#clip0_493_5148)">
<path d="M28.7345 11.2715C28.5152 8.63519 27.3177 6.32812 25.0922 4.8228C22.8769 3.31315 20.5457 1.97694 18.1199 0.82635C15.3174 -0.490803 12.4197 -0.155385 9.69778 1.26812C7.9935 2.16191 6.3161 3.12114 4.68628 4.14582C2.94424 5.26162 1.58776 6.87626 0.797869 8.77426C0.384208 9.72531 0.0119141 10.7704 0.0098458 11.8013C0.0098458 13.1784 0.0098458 14.5549 0.0098458 15.9307C0.0098458 16.2886 0.0098458 16.6465 0.0098458 17.0044C-0.00923788 17.6566 0.0267352 18.3093 0.117395 18.9556C0.675838 22.2424 2.64486 24.8255 5.56531 26.4454C6.91798 27.196 8.21895 28.0509 9.61505 28.7136C11.8281 29.7649 14.4177 30.3805 16.8851 29.7362C19.3526 29.092 21.605 27.4455 23.7933 26.1631C26.8523 24.3735 28.6662 21.7106 28.7903 18.1211C28.8565 15.8427 28.9206 13.5438 28.7345 11.2715ZM20.2544 20.7841C18.6142 21.729 16.9575 22.6494 15.3277 23.6188C14.8375 23.9113 14.459 23.9461 13.9461 23.6413C11.7971 22.3753 9.60264 21.187 7.47229 19.8903C7.28059 19.7531 7.12034 19.5774 7.00201 19.3748C6.88368 19.1721 6.80994 18.947 6.78561 18.7143C6.72563 16.2374 6.7339 13.7606 6.78561 11.2859C6.80686 11.0683 6.87465 10.8577 6.98448 10.6679C7.09431 10.4782 7.24367 10.3138 7.42265 10.1855C9.58816 8.88676 11.7909 7.64936 13.9999 6.4222C14.2708 6.2729 14.73 6.16041 14.9575 6.28721C17.3298 7.59619 19.6732 8.94607 22.1614 10.3778L16.9906 14.9612C18.7156 16.5136 20.3744 18.0107 22.1614 19.6285C21.3589 20.1132 20.8087 20.4609 20.2482 20.7841H20.2544Z" fill="#002660"/>
<path d="M37.2748 21.3219C36.269 20.772 35.4348 19.9599 34.8632 18.9739C34.2792 17.9385 33.9727 16.7726 33.9727 15.587C33.9727 14.4014 34.2792 13.2355 34.8632 12.2C35.4381 11.2187 36.2716 10.41 37.2748 9.86023C38.302 9.30853 39.4524 9.01953 40.6213 9.01953C41.7902 9.01953 42.9406 9.30853 43.9678 9.86023C44.9694 10.4086 45.7999 11.2178 46.3691 12.2C46.9458 13.2378 47.2481 14.4028 47.2481 15.587C47.2481 16.7711 46.9458 17.9361 46.3691 18.9739C45.8031 19.9607 44.972 20.7733 43.9678 21.3219C42.9406 21.8736 41.7902 22.1626 40.6213 22.1626C39.4524 22.1626 38.302 21.8736 37.2748 21.3219ZM42.9109 19.7511C43.5884 19.3577 44.137 18.7798 44.4911 18.0863C44.8656 17.3051 45.0598 16.4515 45.0598 15.587C45.0598 14.7225 44.8656 13.8688 44.4911 13.0877C44.1348 12.4031 43.586 11.835 42.9109 11.4515C42.2039 11.0755 41.4137 10.8787 40.611 10.8787C39.8082 10.8787 39.018 11.0755 38.311 11.4515C37.6361 11.8345 37.0879 12.4029 36.7329 13.0877C36.357 13.8684 36.162 14.7223 36.162 15.587C36.162 16.4517 36.357 17.3055 36.7329 18.0863C37.0856 18.7801 37.6337 19.3583 38.311 19.7511C39.0159 20.1335 39.807 20.334 40.611 20.334C41.415 20.334 42.206 20.1335 42.9109 19.7511Z" fill="black"/>
<path d="M49.2775 14.1819C49.6794 13.4183 50.2884 12.7805 51.0361 12.3398C51.7839 11.8991 52.6409 11.6729 53.5113 11.6867C54.1983 11.6891 54.8767 11.8369 55.501 12.1203C56.1084 12.3748 56.6443 12.7714 57.0626 13.2758V8.36719H59.2136V22.0459H57.0626V20.512C56.6869 21.0303 56.1902 21.4513 55.6148 21.7392C54.9576 22.0679 54.2291 22.2329 53.4927 22.2198C52.6251 22.2279 51.7728 21.994 51.0335 21.5449C50.285 21.0867 49.6777 20.4345 49.2775 19.6591C48.832 18.805 48.6082 17.8548 48.626 16.8939C48.6097 15.9502 48.8337 15.0175 49.2775 14.1819ZM56.6241 15.1064C56.3567 14.6156 55.9591 14.2062 55.4741 13.9221C55.0093 13.6531 54.4802 13.5118 53.9415 13.5131C53.4034 13.51 52.874 13.6476 52.4069 13.9119C51.9224 14.187 51.5249 14.5899 51.2589 15.0757C50.9536 15.6339 50.8017 16.2615 50.8184 16.896C50.8053 17.5365 50.9569 18.1699 51.2589 18.7367C51.5232 19.2393 51.9244 19.6587 52.4172 19.9475C52.8787 20.2174 53.4054 20.3588 53.9415 20.3566C54.4803 20.3588 55.0097 20.2175 55.4741 19.9475C55.9609 19.662 56.3588 19.2494 56.6241 18.7551C56.9268 18.1886 57.0777 17.5549 57.0626 16.9144C57.0752 16.2832 56.9242 15.6594 56.6241 15.1023V15.1064Z" fill="black"/>
<path d="M62.1297 10.1098C61.9416 9.92186 61.814 9.68314 61.7628 9.42364C61.7117 9.16415 61.7393 8.89548 61.8422 8.65149C61.9452 8.40749 62.1188 8.19907 62.3413 8.05247C62.5638 7.90587 62.8252 7.82764 63.0925 7.82764C63.3599 7.82764 63.6213 7.90587 63.8438 8.05247C64.0662 8.19907 64.2399 8.40749 64.3428 8.65149C64.4458 8.89548 64.4734 9.16415 64.4222 9.42364C64.3711 9.68314 64.2434 9.92186 64.0553 10.1098C63.9321 10.2356 63.7841 10.3351 63.6205 10.4023C63.4568 10.4695 63.2811 10.5029 63.1039 10.5004C62.9231 10.505 62.7433 10.4727 62.5756 10.4055C62.408 10.3383 62.2562 10.2376 62.1297 10.1098ZM64.1484 11.8482V22.0337H62.016V11.8482H64.1484Z" fill="black"/>
<path d="M69.4394 13.5685V19.2073C69.4255 19.3548 69.4424 19.5034 69.489 19.6442C69.5356 19.7849 69.6109 19.9147 69.7103 20.0254C69.8902 20.1911 70.1984 20.2749 70.6348 20.2749H71.9441V22.0298H70.2605C69.2953 22.0298 68.5603 21.8082 68.0557 21.3651C67.551 20.9219 67.2952 20.2006 67.2883 19.2012V13.5685H66.0742V11.8505H67.2883V9.31641H69.4394V11.8484H71.9441V13.5685H69.4394Z" fill="black"/>
<path d="M77.5242 12.153C78.1776 11.8332 78.8987 11.6719 79.6277 11.6826C80.4944 11.6718 81.3476 11.8952 82.0952 12.3289C82.8373 12.7693 83.4394 13.4072 83.8325 14.1697C84.2684 15.0128 84.4872 15.9493 84.4696 16.896C84.4859 17.8492 84.2672 18.7919 83.8325 19.6428C83.4373 20.419 82.8324 21.0717 82.0848 21.5286C81.3464 21.9779 80.4947 22.2119 79.6277 22.2035C78.894 22.2196 78.1669 22.064 77.5056 21.7494C76.929 21.474 76.426 21.0683 76.0371 20.5652V22.044H73.9067V8.35498H76.0371V13.3638C76.427 12.8477 76.9371 12.4324 77.5242 12.153ZM81.8676 15.0737C81.5983 14.5863 81.1963 14.1832 80.7073 13.9099C80.2375 13.6466 79.7064 13.5092 79.1664 13.5111C78.6146 13.5111 78.0731 13.6591 77.5997 13.9393C77.1262 14.2195 76.7384 14.6214 76.4776 15.1023C76.1712 15.6675 76.0193 16.302 76.0371 16.9431C76.0217 17.5839 76.1734 18.2178 76.4776 18.7838C76.7436 19.2804 77.1448 19.6934 77.6359 19.9762C78.1005 20.2461 78.6296 20.3884 79.1685 20.3884C79.7074 20.3884 80.2365 20.2461 80.7011 19.9762C81.194 19.6869 81.5958 19.2677 81.8614 18.7654C82.1619 18.1981 82.3127 17.5649 82.2999 16.9246C82.3217 16.2802 82.1704 15.6415 81.8614 15.0737H81.8676Z" fill="black"/>
<path d="M86.6929 10.1097C86.4992 9.92086 86.367 9.67912 86.3131 9.41546C86.2593 9.15181 86.2864 8.87827 86.3908 8.62993C86.4953 8.38158 86.6724 8.16975 86.8994 8.02162C87.1264 7.87348 87.393 7.7958 87.665 7.79852C87.8423 7.7956 88.0184 7.82857 88.1824 7.8954C88.3463 7.96223 88.4948 8.0615 88.6185 8.18712C88.8707 8.44496 89.0117 8.78966 89.0117 9.1484C89.0117 9.50713 88.8707 9.85183 88.6185 10.1097C88.4951 10.2357 88.3467 10.3352 88.1827 10.4021C88.0186 10.4689 87.8424 10.5017 87.665 10.4983C87.4847 10.5027 87.3054 10.4706 87.1382 10.4037C86.971 10.3369 86.8194 10.2368 86.6929 10.1097ZM88.7116 11.8482V22.0336H86.5812V11.8482H88.7116Z" fill="black"/>
<path d="M93.4045 20.3175H98.0789V22.0355H90.937V20.3175L95.63 13.5681H90.937V11.8501H98.0789V13.5681L93.4045 20.3175Z" fill="black"/>
</g>
<defs>
<clipPath id="clip0_493_5148">
<rect width="98.0769" height="30" fill="white"/>
</clipPath>
</defs>
</svg>
