<svg width="19" height="18" viewBox="0 0 19 18" fill="none" xmlns="http://www.w3.org/2000/svg">
<g clip-path="url(#clip0_273_337)">
<path d="M12.9533 10.0928L9.26221 13.5L5.57108 10.0928C3.51496 11.4079 2.13721 13.7809 2.13721 16.5H16.3872C16.3872 13.7809 15.0095 11.4079 12.9533 10.0928Z" fill="#3D3D3D"/>
<path d="M9.26221 10.5C10.5935 10.5 11.7856 9.91875 12.6095 9C13.3238 8.2035 13.7622 7.15425 13.7622 6C13.7622 3.51487 11.7473 1.5 9.26221 1.5C6.77708 1.5 4.76221 3.51487 4.76221 6C4.76221 7.15425 5.20058 8.2035 5.91496 9C6.73883 9.91875 7.93096 10.5 9.26221 10.5Z" fill="#3D3D3D"/>
</g>
<defs>
<clipPath id="clip0_273_337">
<rect width="18" height="18" fill="white" transform="translate(0.262207)"/>
</clipPath>
</defs>
</svg>
