<svg width="17" height="16" viewBox="0 0 17 16" fill="none" xmlns="http://www.w3.org/2000/svg">
<path fill-rule="evenodd" clip-rule="evenodd" d="M8.13858 14.4C9.86557 14.4 11.5218 13.7257 12.743 12.5255C13.9642 11.3252 14.6502 9.69736 14.6502 7.99998C14.6502 6.30259 13.9642 4.67473 12.743 3.47449C11.5218 2.27426 9.86557 1.59998 8.13858 1.59998C6.41159 1.59998 4.75533 2.27426 3.53416 3.47449C2.313 4.67473 1.62695 6.30259 1.62695 7.99998C1.62695 9.69736 2.313 11.3252 3.53416 12.5255C4.75533 13.7257 6.41159 14.4 8.13858 14.4ZM8.95253 5.59998C8.95253 5.3878 8.86678 5.18432 8.71413 5.03429C8.56149 4.88426 8.35445 4.79998 8.13858 4.79998C7.92271 4.79998 7.71567 4.88426 7.56303 5.03429C7.41038 5.18432 7.32463 5.3878 7.32463 5.59998V7.19998H5.69672C5.48085 7.19998 5.27381 7.28426 5.12117 7.43429C4.96852 7.58432 4.88277 7.7878 4.88277 7.99998C4.88277 8.21215 4.96852 8.41563 5.12117 8.56566C5.27381 8.71569 5.48085 8.79998 5.69672 8.79998H7.32463V10.4C7.32463 10.6121 7.41038 10.8156 7.56303 10.9657C7.71567 11.1157 7.92271 11.2 8.13858 11.2C8.35445 11.2 8.56149 11.1157 8.71413 10.9657C8.86678 10.8156 8.95253 10.6121 8.95253 10.4V8.79998H10.5804C10.7963 8.79998 11.0033 8.71569 11.156 8.56566C11.3086 8.41563 11.3944 8.21215 11.3944 7.99998C11.3944 7.7878 11.3086 7.58432 11.156 7.43429C11.0033 7.28426 10.7963 7.19998 10.5804 7.19998H8.95253V5.59998Z" fill="#000839"/>
</svg>
