<svg width="19" height="18" viewBox="0 0 19 18" fill="none" xmlns="http://www.w3.org/2000/svg">
<path d="M3.63721 6.1875H14.8872L16.0122 15.75H2.51221L3.63721 6.1875ZM5.88721 10.125H7.01221V7.875H5.88721V10.125ZM11.5122 10.125H12.6372V7.875H11.5122V10.125ZM7.01221 5.0625H5.88721C5.88721 4.16739 6.24279 3.30895 6.87572 2.67601C7.50866 2.04308 8.3671 1.6875 9.26221 1.6875C10.1573 1.6875 11.0158 2.04308 11.6487 2.67601C12.2816 3.30895 12.6372 4.16739 12.6372 5.0625H11.5122C11.5122 4.46576 11.2752 3.89347 10.8532 3.47151C10.4312 3.04955 9.85894 2.8125 9.26221 2.8125C8.66547 2.8125 8.09317 3.04955 7.67122 3.47151C7.24926 3.89347 7.01221 4.46576 7.01221 5.0625Z" fill="#3D3D3D"/>
</svg>
