<svg width="19" height="18" viewBox="0 0 19 18" fill="none" xmlns="http://www.w3.org/2000/svg">
<path fill-rule="evenodd" clip-rule="evenodd" d="M2.15161 5.86706C1.76221 6.57846 1.76221 7.43662 1.76221 9.15293V10.2938C1.76221 13.2194 1.76221 14.6822 2.64088 15.5911C3.51957 16.5 4.93378 16.5 7.76221 16.5H10.7622C13.5906 16.5 15.0049 16.5 15.8835 15.5911C16.7622 14.6822 16.7622 13.2194 16.7622 10.2938V9.15293C16.7622 7.43662 16.7622 6.57846 16.3728 5.86706C15.9834 5.15566 15.272 4.71413 13.8492 3.83109L12.3492 2.90015C10.8452 1.96672 10.0931 1.5 9.26221 1.5C8.43128 1.5 7.67925 1.96672 6.17523 2.90015L4.67523 3.8311C3.25242 4.71413 2.54101 5.15566 2.15161 5.86706ZM8.69971 13.5C8.69971 13.8107 8.95156 14.0625 9.26221 14.0625C9.57286 14.0625 9.82471 13.8107 9.82471 13.5V11.25C9.82471 10.9394 9.57286 10.6875 9.26221 10.6875C8.95156 10.6875 8.69971 10.9394 8.69971 11.25V13.5Z" fill="white"/>
</svg>
