<svg width="13" height="13" viewBox="0 0 13 13" fill="none" xmlns="http://www.w3.org/2000/svg">
<path d="M5.06741 9.89837C5.83851 10.7198 7.16133 10.7198 7.93243 9.89837C9.24658 8.49847 10.2916 7.12412 10.2916 5.525C10.2916 3.37109 8.594 1.625 6.49992 1.625C4.40584 1.625 2.70825 3.37109 2.70825 5.525C2.70825 7.12412 3.75325 8.49847 5.06741 9.89837Z" stroke="#002660" stroke-linecap="round" stroke-linejoin="round"/>
<path d="M6.49984 6.49967C7.09816 6.49967 7.58317 6.01467 7.58317 5.41634C7.58317 4.81803 7.09816 4.33301 6.49984 4.33301C5.90151 4.33301 5.4165 4.81803 5.4165 5.41634C5.4165 6.01467 5.90151 6.49967 6.49984 6.49967Z" stroke="#002660" stroke-linecap="round" stroke-linejoin="round"/>
</svg>
