<svg width="18" height="18" viewBox="0 0 18 18" fill="none" xmlns="http://www.w3.org/2000/svg">
<path d="M8.78025 1.71975C8.71072 1.64997 8.62808 1.59463 8.53707 1.55691C8.44607 1.5192 8.34851 1.49986 8.25 1.5H4.5C4.40149 1.49986 4.30393 1.5192 4.21293 1.55691C4.12192 1.59463 4.03928 1.64997 3.96975 1.71975L1.71975 3.96975C1.64997 4.03928 1.59463 4.12192 1.55691 4.21293C1.5192 4.30393 1.49986 4.40149 1.5 4.5V8.25C1.5 8.4495 1.57875 8.64 1.71975 8.78025L9.21975 16.2803C9.28924 16.3501 9.37186 16.4056 9.46286 16.4435C9.55386 16.4813 9.65144 16.5008 9.75 16.5008C9.84856 16.5008 9.94614 16.4813 10.0371 16.4435C10.1281 16.4056 10.2108 16.3501 10.2803 16.2803L16.2803 10.2803C16.35 10.2107 16.4053 10.128 16.443 10.037C16.4807 9.94604 16.5002 9.8485 16.5002 9.75C16.5002 9.6515 16.4807 9.55397 16.443 9.46298C16.4053 9.372 16.35 9.28934 16.2803 9.21975L8.78025 1.71975ZM6.26475 7.5C6.10003 7.50411 5.93614 7.47522 5.78275 7.41503C5.62936 7.35485 5.48956 7.26458 5.37158 7.14955C5.25361 7.03451 5.15984 6.89704 5.0958 6.74521C5.03176 6.59339 4.99874 6.43029 4.99869 6.26551C4.99864 6.10073 5.03156 5.93761 5.09551 5.78575C5.15946 5.63389 5.25314 5.49636 5.37105 5.38125C5.48895 5.26614 5.6287 5.17579 5.78205 5.11551C5.93541 5.05523 6.09927 5.02624 6.264 5.03025C6.58624 5.03809 6.89266 5.17159 7.11783 5.40224C7.343 5.63289 7.46909 5.94242 7.46919 6.26476C7.46929 6.5871 7.34338 6.89671 7.11835 7.12749C6.89332 7.35828 6.58699 7.49196 6.26475 7.5Z" fill="white"/>
</svg>
