<svg width="18" height="18" viewBox="0 0 18 18" fill="none" xmlns="http://www.w3.org/2000/svg">
<path d="M12 13.5C12 12.5 11.8334 11.625 11.6667 11.5C11.5 11.375 10.3333 11.25 9 11.25C7.66665 11.25 6.5 11.375 6.33333 11.5C6.16666 11.625 6 12.5 6 13.5M12 13.5C12 14.5 11.8334 15.375 11.6667 15.5C11.5 15.625 10.3333 15.75 9 15.75C7.66665 15.75 6.5 15.625 6.33333 15.5C6.16666 15.375 6 14.5 6 13.5M12 13.5C12 13.5 14.625 13.3125 15 13.125C15.375 12.9375 15.75 11.625 15.75 10.125C15.75 8.625 15.375 7.3125 15 7.125C14.7597 7.00483 13.5951 6.88466 12 6.81386M6 13.5C6 13.5 3.375 13.3125 3 13.125C2.625 12.9375 2.25 11.625 2.25 10.125C2.25 8.625 2.625 7.3125 3 7.125C3.24034 7.00483 4.40487 6.88466 6 6.81386M12 6.81386C11.1062 6.77418 10.0773 6.75 9 6.75C7.9227 6.75 6.89376 6.77418 6 6.81386M12 6.81386V5.25C12 3.91666 11.8334 2.75 11.6667 2.58333C11.5 2.41666 10.3333 2.25 9 2.25C7.66665 2.25 6.5 2.41666 6.33333 2.58333C6.16666 2.75 6 3.91666 6 5.25V6.81386" stroke="#06BAFF" stroke-width="1.5" stroke-linecap="round" stroke-linejoin="round"/>
</svg>
