<svg width="18" height="18" viewBox="0 0 18 18" fill="none" xmlns="http://www.w3.org/2000/svg">
<path d="M16.4913 8.24612L16.4917 12.2069C16.4917 13.3038 15.6355 14.2007 14.5549 14.2657L14.4292 14.2694H3.57085C2.47395 14.2694 1.57705 13.4132 1.51212 12.3326L1.50835 12.2069L1.50781 8.24612H16.4913ZM13.6897 10.8751H11.8147L11.7384 10.8802C11.4639 10.9175 11.2522 11.1528 11.2522 11.4376C11.2522 11.7224 11.4639 11.9577 11.7384 11.995L11.8147 12.0001H13.6897L13.7661 11.995C14.0406 11.9577 14.2522 11.7224 14.2522 11.4376C14.2522 11.1528 14.0406 10.9175 13.7661 10.8802L13.6897 10.8751ZM14.4292 3.76562C15.5261 3.76562 16.423 4.6219 16.488 5.70248L16.4917 5.82812L16.4913 7.12112H1.50781L1.50835 5.82812C1.50835 4.73123 2.36463 3.83432 3.44521 3.76939L3.57085 3.76562H14.4292Z" fill="white"/>
</svg>
