<svg width="19" height="18" viewBox="0 0 19 18" fill="none" xmlns="http://www.w3.org/2000/svg">
<g clip-path="url(#clip0_273_323)">
<path d="M8.13721 7.875C11.5545 7.875 14.3247 6.36396 14.3247 4.5C14.3247 2.63604 11.5545 1.125 8.13721 1.125C4.71994 1.125 1.94971 2.63604 1.94971 4.5C1.94971 6.36396 4.71994 7.875 8.13721 7.875Z" fill="#3D3D3D"/>
<path d="M8.13721 13.4996C5.43721 13.4996 3.18721 12.7121 1.94971 11.4746V13.4996C1.94971 15.4121 4.64971 16.8746 8.13721 16.8746C8.64346 16.8746 9.14971 16.8184 9.65596 16.7621C8.81221 15.9184 8.30596 14.7371 8.13721 13.4996Z" fill="#3D3D3D"/>
<path d="M1.94971 6.97461V8.99961C1.94971 10.9121 4.64971 12.3746 8.13721 12.3746C8.13721 12.3746 8.13721 12.3746 8.19346 12.3746C8.30596 11.0246 8.98096 9.78711 9.88096 8.88711C9.31846 8.94336 8.75596 8.99961 8.13721 8.99961C5.43721 8.99961 3.18721 8.21211 1.94971 6.97461Z" fill="#3D3D3D"/>
<path d="M14.3247 12.3754H18.206C17.9247 10.3504 16.3497 8.71914 14.3247 8.49414V12.3754Z" fill="#3D3D3D"/>
<path d="M13.7622 13.5004C13.4247 13.5004 13.1997 13.2754 13.1997 12.9379V8.49414C11.006 8.77539 9.26221 10.6879 9.26221 12.9379C9.26221 15.4129 11.2872 17.4379 13.7622 17.4379C16.0685 17.4379 17.9247 15.6941 18.206 13.5004H13.7622Z" fill="#3D3D3D"/>
</g>
<defs>
<clipPath id="clip0_273_323">
<rect width="18" height="18" fill="white" transform="translate(0.262207)"/>
</clipPath>
</defs>
</svg>
