<svg width="18" height="18" viewBox="0 0 18 18" fill="none" xmlns="http://www.w3.org/2000/svg">
<path d="M14.25 2.25H3.75L2.75025 11.25H15.2497L14.25 2.25ZM12 6.75C12 7.54565 11.6839 8.30871 11.1213 8.87132C10.5587 9.43393 9.79565 9.75 9 9.75C8.20435 9.75 7.44129 9.43393 6.87868 8.87132C6.31607 8.30871 6 7.54565 6 6.75V5.25C6 5.05109 6.07902 4.86032 6.21967 4.71967C6.36032 4.57902 6.55109 4.5 6.75 4.5C6.94891 4.5 7.13968 4.57902 7.28033 4.71967C7.42098 4.86032 7.5 5.05109 7.5 5.25V6.75C7.5 7.14782 7.65803 7.52935 7.93934 7.81066C8.22064 8.09196 8.60217 8.25 9 8.25C9.39782 8.25 9.77935 8.09196 10.0607 7.81066C10.342 7.52935 10.5 7.14782 10.5 6.75V5.25C10.5 5.05109 10.579 4.86032 10.7197 4.71967C10.8603 4.57902 11.0511 4.5 11.25 4.5C11.4489 4.5 11.6397 4.57902 11.7803 4.71967C11.921 4.86032 12 5.05109 12 5.25V6.75ZM15.75 15.75H2.25L2.583 12.75H15.417L15.75 15.75Z" fill="white"/>
</svg>
