<svg width="19" height="18" viewBox="0 0 19 18" fill="none" xmlns="http://www.w3.org/2000/svg">
<path fill-rule="evenodd" clip-rule="evenodd" d="M10.9713 1.61418C10.6936 1.5 10.3415 1.5 9.63721 1.5C8.93296 1.5 8.58083 1.5 8.30311 1.61418C7.93275 1.76642 7.63852 2.05844 7.48513 2.42597C7.4151 2.59376 7.38769 2.78887 7.37697 3.07349C7.36121 3.49176 7.14508 3.87892 6.77983 4.0882C6.41459 4.29747 5.96869 4.28965 5.59582 4.09407C5.34209 3.96097 5.15812 3.88697 4.9767 3.86327C4.57927 3.81134 4.17734 3.91822 3.85933 4.1604C3.62081 4.34204 3.44475 4.64468 3.09263 5.24995C2.74051 5.85523 2.56446 6.15786 2.52522 6.45368C2.47289 6.8481 2.58059 7.24699 2.82462 7.56262C2.936 7.7067 3.09253 7.82775 3.33548 7.97925C3.69264 8.202 3.92245 8.58143 3.92242 9C3.9224 9.41857 3.6926 9.79792 3.33548 10.0206C3.0925 10.1722 2.93593 10.2933 2.82454 10.4374C2.58052 10.753 2.47282 11.1518 2.52514 11.5463C2.56438 11.8421 2.74045 12.1447 3.09256 12.75C3.44467 13.3553 3.62074 13.6579 3.85925 13.8395C4.17727 14.0817 4.5792 14.1886 4.97662 14.1367C5.15804 14.113 5.34199 14.039 5.5957 13.9059C5.9686 13.7103 6.41453 13.7025 6.7798 13.9117C7.14506 14.1211 7.3612 14.5082 7.37697 14.9266C7.38769 15.2111 7.4151 15.4063 7.48513 15.574C7.63852 15.9416 7.93275 16.2336 8.30311 16.3858C8.58083 16.5 8.93296 16.5 9.63721 16.5C10.3415 16.5 10.6936 16.5 10.9713 16.3858C11.3417 16.2336 11.6359 15.9416 11.7893 15.574C11.8593 15.4063 11.8868 15.2111 11.8975 14.9265C11.9132 14.5082 12.1293 14.1211 12.4946 13.9117C12.8598 13.7024 13.3058 13.7103 13.6787 13.9059C13.9324 14.039 14.1163 14.1129 14.2977 14.1366C14.6951 14.1886 15.0971 14.0817 15.4151 13.8395C15.6536 13.6579 15.8297 13.3553 16.1818 12.7499C16.5339 12.1447 16.7099 11.8421 16.7492 11.5463C16.8015 11.1518 16.6938 10.7529 16.4498 10.4373C16.3384 10.2932 16.1819 10.1721 15.9389 10.0206C15.5818 9.79792 15.352 9.4185 15.352 8.99992C15.352 8.58135 15.5818 8.20208 15.9389 7.9794C16.1819 7.82783 16.3385 7.70677 16.4499 7.56262C16.6939 7.24705 16.8016 6.84815 16.7493 6.45373C16.71 6.15791 16.534 5.85527 16.1819 5.25C15.8297 4.64473 15.6537 4.34209 15.4151 4.16045C15.0971 3.91827 14.6952 3.81139 14.2978 3.86332C14.1164 3.88702 13.9324 3.96102 13.6787 4.0941C13.3058 4.28969 12.8599 4.29752 12.4946 4.08822C12.1294 3.87893 11.9132 3.49174 11.8974 3.07345C11.8867 2.78886 11.8593 2.59375 11.7893 2.42597C11.6359 2.05844 11.3417 1.76642 10.9713 1.61418ZM9.63721 11.25C10.8893 11.25 11.9043 10.2427 11.9043 9C11.9043 7.75733 10.8893 6.75 9.63721 6.75C8.38508 6.75 7.37008 7.75733 7.37008 9C7.37008 10.2427 8.38508 11.25 9.63721 11.25Z" fill="#3D3D3D"/>
</svg>
